<svg xmlns="http://www.w3.org/2000/svg" width="815" height="524" viewBox="0 0 815 524" role="img" aria-label="Snag logo vector">
  <path d="M 393.00 128.00 L 381.00 122.00 L 366.00 119.00 L 338.00 122.00 L 322.00 130.00 L 306.00 146.00 L 304.00 123.00 L 245.00 123.00 L 245.00 345.00 L 305.00 344.00 L 305.00 195.00 L 310.00 179.00 L 316.00 173.00 L 324.00 170.00 L 334.00 170.00 L 345.00 175.00 L 353.00 191.00 L 354.00 344.00 L 413.00 344.00 L 413.00 162.00 L 409.00 146.00 Z M 792.00 122.00 L 746.00 123.00 L 735.00 140.00 L 724.00 129.00 L 709.00 121.00 L 695.00 118.00 L 671.00 120.00 L 644.00 134.00 L 632.00 147.00 L 620.00 170.00 L 612.00 206.00 L 611.00 250.00 L 618.00 291.00 L 629.00 316.00 L 646.00 334.00 L 663.00 343.00 L 677.00 346.00 L 705.00 343.00 L 715.00 338.00 L 730.00 323.00 L 732.00 325.00 L 726.00 361.00 L 704.00 398.00 L 685.00 416.00 L 665.00 428.00 L 642.00 435.00 L 619.00 434.00 L 606.00 465.00 L 593.00 454.00 L 567.00 463.00 L 543.00 463.00 L 522.00 456.00 L 509.00 445.00 L 505.00 434.00 L 507.00 423.00 L 513.00 415.00 L 527.00 407.00 L 564.00 401.00 L 529.00 390.00 L 496.00 390.00 L 473.00 402.00 L 463.00 420.00 L 462.00 431.00 L 466.00 448.00 L 481.00 469.00 L 513.00 489.00 L 542.00 498.00 L 574.00 503.00 L 625.00 502.00 L 654.00 496.00 L 696.00 479.00 L 721.00 463.00 L 745.00 441.00 L 761.00 420.00 L 773.00 397.00 L 785.00 354.00 L 786.00 157.00 L 794.00 126.00 Z M 701.00 167.00 L 706.00 167.00 L 713.00 169.00 L 723.00 178.00 L 726.00 184.00 L 729.00 194.00 L 729.00 198.00 L 730.00 199.00 L 730.00 211.00 L 731.00 212.00 L 731.00 254.00 L 730.00 255.00 L 730.00 263.00 L 729.00 264.00 L 727.00 276.00 L 722.00 286.00 L 716.00 292.00 L 707.00 296.00 L 695.00 296.00 L 692.00 295.00 L 685.00 290.00 L 679.00 283.00 L 673.00 267.00 L 673.00 261.00 L 671.00 255.00 L 671.00 241.00 L 670.00 240.00 L 671.00 210.00 L 673.00 204.00 L 673.00 199.00 L 677.00 187.00 L 686.00 174.00 L 694.00 169.00 Z M 462.00 131.00 L 450.00 142.00 L 442.00 154.00 L 434.00 180.00 L 435.00 190.00 L 443.00 189.00 L 489.00 175.00 L 498.00 166.00 L 505.00 163.00 L 521.00 163.00 L 527.00 166.00 L 533.00 172.00 L 536.00 178.00 L 537.00 186.00 L 532.00 198.00 L 523.00 206.00 L 470.00 223.00 L 451.00 234.00 L 437.00 249.00 L 433.00 256.00 L 428.00 273.00 L 428.00 299.00 L 432.00 314.00 L 440.00 329.00 L 447.00 337.00 L 457.00 344.00 L 466.00 348.00 L 477.00 350.00 L 495.00 350.00 L 513.00 345.00 L 528.00 335.00 L 538.00 322.00 L 540.00 323.00 L 542.00 337.00 L 545.00 343.00 L 548.00 345.00 L 606.00 345.00 L 607.00 344.00 L 597.00 321.00 L 595.00 307.00 L 595.00 170.00 L 591.00 157.00 L 585.00 146.00 L 567.00 130.00 L 548.00 122.00 L 533.00 119.00 L 506.00 118.00 L 490.00 120.00 L 476.00 124.00 Z M 537.00 231.00 L 538.00 232.00 L 538.00 246.00 L 539.00 247.00 L 538.00 248.00 L 538.00 251.00 L 539.00 252.00 L 538.00 272.00 L 534.00 285.00 L 531.00 291.00 L 525.00 298.00 L 514.00 304.00 L 505.00 305.00 L 504.00 304.00 L 500.00 304.00 L 494.00 301.00 L 487.00 293.00 L 485.00 289.00 L 485.00 284.00 L 484.00 283.00 L 485.00 271.00 L 489.00 262.00 L 498.00 253.00 L 504.00 249.00 L 529.00 237.00 Z M 161.00 21.00 L 115.00 21.00 L 94.00 26.00 L 76.00 34.00 L 58.00 47.00 L 46.00 60.00 L 32.00 90.00 L 30.00 131.00 L 36.00 155.00 L 43.00 169.00 L 72.00 202.00 L 127.00 243.00 L 143.00 260.00 L 150.00 275.00 L 149.00 290.00 L 140.00 302.00 L 127.00 308.00 L 110.00 308.00 L 89.00 298.00 L 76.00 285.00 L 69.00 271.00 L 66.00 250.00 L 51.00 256.00 L 30.00 272.00 L 20.00 291.00 L 20.00 310.00 L 29.00 330.00 L 44.00 345.00 L 69.00 357.00 L 111.00 364.00 L 144.00 363.00 L 170.00 357.00 L 184.00 351.00 L 204.00 337.00 L 217.00 321.00 L 225.00 302.00 L 228.00 287.00 L 227.00 260.00 L 217.00 231.00 L 209.00 219.00 L 190.00 200.00 L 127.00 151.00 L 113.00 133.00 L 107.00 117.00 L 107.00 102.00 L 112.00 91.00 L 126.00 81.00 L 144.00 80.00 L 157.00 86.00 L 174.00 106.00 L 186.00 130.00 L 195.00 162.00 L 201.00 159.00 L 219.00 136.00 L 228.00 108.00 L 227.00 79.00 L 219.00 58.00 L 212.00 48.00 L 193.00 32.00 Z" fill="#e8271e" fill-rule="evenodd"/>
</svg>